<svg xmlns="http://www.w3.org/2000/svg" version="1.1" xmlns:xlink="http://www.w3.org/1999/xlink" xmlns:svgjs="http://svgjs.com/svgjs" width="1440" height="560" preserveAspectRatio="none" viewBox="0 0 1440 560"><g mask="url(&quot;#SvgjsMask1052&quot;)" fill="none"><rect width="1440" height="560" x="0" y="0" fill="rgba(7, 4, 41, 1)"></rect><path d="M0,577.487C107.104,565.165,205.747,519.028,291.941,454.269C373.684,392.854,432.261,309.735,478.052,218.319C525.256,124.083,565.849,24.737,559.808,-80.488C553.465,-190.978,521.484,-305.772,443.459,-384.26C367.144,-461.028,249.731,-466.289,145.892,-496.862C41.968,-527.46,-57.836,-575.837,-165.471,-563.542C-284.73,-549.919,-405.777,-510.156,-489.628,-424.265C-575.518,-336.286,-622.115,-213.06,-627.545,-90.227C-632.725,26.955,-568.609,130.732,-518.86,236.955C-469.602,342.128,-435.652,463.083,-338.558,526.806C-241.187,590.711,-115.706,590.799,0,577.487" fill="#05031e"></path><path d="M1440 1065.849C1533.633 1063.989 1613.587 1002.4780000000001 1686.97 944.293 1754.772 890.533 1811.9180000000001 824.905 1844.815 744.873 1876.902 666.811 1880.066 581.963 1870.365 498.123 1860.445 412.392 1829.248 334.106 1788.482 258.038 1737.672 163.228 1710.031 19.75 1604.071 1.2250000000000227 1494.21-17.98199999999997 1428.156 129.072 1327.681 177.476 1249.657 215.06400000000002 1147.444 192.534 1084.183 251.683 1019.163 312.477 1011.1220000000001 409.04499999999996 988.0640000000001 495.021 961.885 592.636 900.178 695.446 940.2919999999999 788.2090000000001 980.409 880.9780000000001 1098.2930000000001 905.143 1186.643 954.231 1268.981 999.9780000000001 1345.826 1067.72 1440 1065.849" fill="#090534"></path></g><defs><mask id="SvgjsMask1052"><rect width="1440" height="560" fill="#ffffff"></rect></mask></defs></svg>